{
    "asset" : {
        "generator" : "Khronos glTF Blender I/O v1.6.16",
        "version" : "2.0"
    },
    "scene" : 0,
    "scenes" : [
        {
            "name" : "Scene",
            "nodes" : [
                0
            ]
        }
    ],
    "nodes" : [
        {
            "mesh" : 0,
            "name" : "BarramundiFish",
            "rotation" : [
                0,
                1,
                0,
                0
            ],
            "scale" : [
                5,
                5,
                5
            ],
            "translation" : [
                0.01811138167977333,
                -0.11010944843292236,
                0.25701838731765747
            ]
        }
    ],
    "materials" : [
        {
            "name" : "BarramundiFish_baseColor.png",
            "normalTexture" : {
                "index" : 0
            },
            "occlusionTexture" : {
                "index" : 1
            },
            "pbrMetallicRoughness" : {
                "baseColorTexture" : {
                    "index" : 2
                },
                "metallicRoughnessTexture" : {
                    "index" : 1
                }
            }
        }
    ],
    "meshes" : [
        {
            "name" : "BarramundiFish",
            "primitives" : [
                {
                    "attributes" : {
                        "POSITION" : 0,
                        "NORMAL" : 1,
                        "TEXCOORD_0" : 2
                    },
                    "indices" : 3,
                    "material" : 0
                }
            ]
        }
    ],
    "textures" : [
        {
            "sampler" : 0,
            "source" : 0
        },
        {
            "sampler" : 0,
            "source" : 1
        },
        {
            "sampler" : 0,
            "source" : 2
        }
    ],
    "images" : [
        {
            "mimeType" : "image/png",
            "name" : "BarramundiFish_normal",
            "uri" : "BarramundiFish_normal.png"
        },
        {
            "mimeType" : "image/png",
            "name" : "BarramundiFish_occlusionRoughnessMetallic",
            "uri" : "BarramundiFish_occlusionRoughnessMetallic.png"
        },
        {
            "mimeType" : "image/png",
            "name" : "BarramundiFish_baseColor",
            "uri" : "BarramundiFish_baseColor.png"
        }
    ],
    "accessors" : [
        {
            "bufferView" : 0,
            "componentType" : 5126,
            "count" : 2188,
            "max" : [
                0.07087310403585434,
                0.1538853645324707,
                0.351074755191803
            ],
            "min" : [
                -0.07203048467636108,
                -0.13362139463424683,
                -0.2920364737510681
            ],
            "type" : "VEC3"
        },
        {
            "bufferView" : 1,
            "componentType" : 5126,
            "count" : 2188,
            "type" : "VEC3"
        },
        {
            "bufferView" : 2,
            "componentType" : 5126,
            "count" : 2188,
            "type" : "VEC2"
        },
        {
            "bufferView" : 3,
            "componentType" : 5123,
            "count" : 11592,
            "type" : "SCALAR"
        }
    ],
    "bufferViews" : [
        {
            "buffer" : 0,
            "byteLength" : 26256,
            "byteOffset" : 0
        },
        {
            "buffer" : 0,
            "byteLength" : 26256,
            "byteOffset" : 26256
        },
        {
            "buffer" : 0,
            "byteLength" : 17504,
            "byteOffset" : 52512
        },
        {
            "buffer" : 0,
            "byteLength" : 23184,
            "byteOffset" : 70016
        }
    ],
    "samplers" : [
        {
            "magFilter" : 9729,
            "minFilter" : 9987
        }
    ],
    "buffers" : [
        {
            "byteLength" : 93200,
            "uri" : "BarramundiFish.bin"
        }
    ]
}
