{
    "asset" : {
        "generator" : "Khronos glTF Blender I/O v1.6.16",
        "version" : "2.0"
    },
    "scene" : 0,
    "scenes" : [
        {
            "name" : "Scene",
            "nodes" : [
                0
            ]
        }
    ],
    "nodes" : [
        {
            "mesh" : 0,
            "name" : "Avocado",
            "rotation" : [
                0,
                1,
                0,
                0
            ],
            "scale" : [
                30,
                30,
                30
            ],
            "translation" : [
                0.04380403086543083,
                -0.28875625133514404,
                0.03621101751923561
            ]
        }
    ],
    "materials" : [
        {
            "name" : "Avocado_baseColor.png",
            "normalTexture" : {
                "index" : 0
            },
            "pbrMetallicRoughness" : {
                "baseColorTexture" : {
                    "index" : 1
                },
                "metallicRoughnessTexture" : {
                    "index" : 2
                }
            }
        }
    ],
    "meshes" : [
        {
            "name" : "Avocado",
            "primitives" : [
                {
                    "attributes" : {
                        "POSITION" : 0,
                        "NORMAL" : 1,
                        "TEXCOORD_0" : 2
                    },
                    "indices" : 3,
                    "material" : 0
                }
            ]
        }
    ],
    "textures" : [
        {
            "sampler" : 0,
            "source" : 0
        },
        {
            "sampler" : 0,
            "source" : 1
        },
        {
            "sampler" : 0,
            "source" : 2
        }
    ],
    "images" : [
        {
            "mimeType" : "image/png",
            "name" : "Avocado_normal",
            "uri" : "Avocado_normal.png"
        },
        {
            "mimeType" : "image/png",
            "name" : "Avocado_baseColor",
            "uri" : "Avocado_baseColor.png"
        },
        {
            "mimeType" : "image/png",
            "name" : "Avocado_roughnessMetallic",
            "uri" : "Avocado_roughnessMetallic.png"
        }
    ],
    "accessors" : [
        {
            "bufferView" : 0,
            "componentType" : 5126,
            "count" : 406,
            "max" : [
                0.022156991064548492,
                0.037175387144088745,
                0.01453322172164917
            ],
            "min" : [
                -0.02040483057498932,
                -0.02572041191160679,
                -0.013084779493510723
            ],
            "type" : "VEC3"
        },
        {
            "bufferView" : 1,
            "componentType" : 5126,
            "count" : 406,
            "type" : "VEC3"
        },
        {
            "bufferView" : 2,
            "componentType" : 5126,
            "count" : 406,
            "type" : "VEC2"
        },
        {
            "bufferView" : 3,
            "componentType" : 5123,
            "count" : 2046,
            "type" : "SCALAR"
        }
    ],
    "bufferViews" : [
        {
            "buffer" : 0,
            "byteLength" : 4872,
            "byteOffset" : 0
        },
        {
            "buffer" : 0,
            "byteLength" : 4872,
            "byteOffset" : 4872
        },
        {
            "buffer" : 0,
            "byteLength" : 3248,
            "byteOffset" : 9744
        },
        {
            "buffer" : 0,
            "byteLength" : 4092,
            "byteOffset" : 12992
        }
    ],
    "samplers" : [
        {
            "magFilter" : 9729,
            "minFilter" : 9987
        }
    ],
    "buffers" : [
        {
            "byteLength" : 17084,
            "uri" : "Avocado.bin"
        }
    ]
}
