{
    "asset" : {
        "generator" : "Khronos glTF Blender I/O v1.6.16",
        "version" : "2.0"
    },
    "scene" : 0,
    "scenes" : [
        {
            "name" : "Scene",
            "nodes" : [
                0
            ]
        }
    ],
    "nodes" : [
        {
            "mesh" : 0,
            "name" : "Head"
        }
    ],
    "meshes" : [
        {
            "name" : "Quad Sphere",
            "primitives" : [
                {
                    "attributes" : {
                        "POSITION" : 0,
                        "NORMAL" : 1,
                        "TEXCOORD_0" : 2,
                        "COLOR_0" : 3,
                        "COLOR_1" : 4,
                        "COLOR_2" : 5
                    },
                    "indices" : 6
                }
            ]
        }
    ],
    "accessors" : [
        {
            "bufferView" : 0,
            "componentType" : 5126,
            "count" : 39534,
            "max" : [
                1.508022427558899,
                1.123814582824707,
                1.3077709674835205
            ],
            "min" : [
                -1.508022427558899,
                -2.536189556121826,
                -0.9455212354660034
            ],
            "type" : "VEC3"
        },
        {
            "bufferView" : 1,
            "componentType" : 5126,
            "count" : 39534,
            "type" : "VEC3"
        },
        {
            "bufferView" : 2,
            "componentType" : 5126,
            "count" : 39534,
            "type" : "VEC2"
        },
        {
            "bufferView" : 3,
            "componentType" : 5123,
            "count" : 39534,
            "normalized" : true,
            "type" : "VEC4"
        },
        {
            "bufferView" : 4,
            "componentType" : 5123,
            "count" : 39534,
            "normalized" : true,
            "type" : "VEC4"
        },
        {
            "bufferView" : 5,
            "componentType" : 5123,
            "count" : 39534,
            "normalized" : true,
            "type" : "VEC4"
        },
        {
            "bufferView" : 6,
            "componentType" : 5123,
            "count" : 233700,
            "type" : "SCALAR"
        }
    ],
    "bufferViews" : [
        {
            "buffer" : 0,
            "byteLength" : 474408,
            "byteOffset" : 0
        },
        {
            "buffer" : 0,
            "byteLength" : 474408,
            "byteOffset" : 474408
        },
        {
            "buffer" : 0,
            "byteLength" : 316272,
            "byteOffset" : 948816
        },
        {
            "buffer" : 0,
            "byteLength" : 316272,
            "byteOffset" : 1265088
        },
        {
            "buffer" : 0,
            "byteLength" : 316272,
            "byteOffset" : 1581360
        },
        {
            "buffer" : 0,
            "byteLength" : 316272,
            "byteOffset" : 1897632
        },
        {
            "buffer" : 0,
            "byteLength" : 467400,
            "byteOffset" : 2213904
        }
    ],
    "buffers" : [
        {
            "byteLength" : 2681304,
            "uri" : "data:application/octet-stream;base64,"
        }
    ]
}
