{
    "asset" : {
        "generator" : "Khronos glTF Blender I/O v1.6.16",
        "version" : "2.0"
    },
    "scene" : 0,
    "scenes" : [
        {
            "name" : "Scene",
            "nodes" : [
                0
            ]
        }
    ],
    "nodes" : [
        {
            "mesh" : 0,
            "name" : "Corset",
            "rotation" : [
                0,
                1,
                0,
                0
            ],
            "scale" : [
                30,
                30,
                30
            ]
        }
    ],
    "materials" : [
        {
            "name" : "Corset_O",
            "normalTexture" : {
                "index" : 0
            },
            "occlusionTexture" : {
                "index" : 1
            },
            "pbrMetallicRoughness" : {
                "baseColorTexture" : {
                    "index" : 2
                },
                "metallicRoughnessTexture" : {
                    "index" : 1
                }
            }
        }
    ],
    "meshes" : [
        {
            "name" : "pCube49",
            "primitives" : [
                {
                    "attributes" : {
                        "POSITION" : 0,
                        "NORMAL" : 1,
                        "TEXCOORD_0" : 2
                    },
                    "indices" : 3,
                    "material" : 0
                }
            ]
        }
    ],
    "textures" : [
        {
            "sampler" : 0,
            "source" : 0
        },
        {
            "sampler" : 0,
            "source" : 1
        },
        {
            "sampler" : 0,
            "source" : 2
        }
    ],
    "images" : [
        {
            "mimeType" : "image/png",
            "name" : "Corset_normal",
            "uri" : "Corset_normal.png"
        },
        {
            "mimeType" : "image/png",
            "name" : "Corset_occlusionRoughnessMetallic",
            "uri" : "Corset_occlusionRoughnessMetallic.png"
        },
        {
            "mimeType" : "image/png",
            "name" : "Corset_baseColor",
            "uri" : "Corset_baseColor.png"
        }
    ],
    "accessors" : [
        {
            "bufferView" : 0,
            "componentType" : 5126,
            "count" : 11594,
            "max" : [
                0.019521117210388184,
                0.024684756994247437,
                0.022799458354711533
            ],
            "min" : [
                -0.019428621977567673,
                -0.03315677121281624,
                -0.016150273382663727
            ],
            "type" : "VEC3"
        },
        {
            "bufferView" : 1,
            "componentType" : 5126,
            "count" : 11594,
            "type" : "VEC3"
        },
        {
            "bufferView" : 2,
            "componentType" : 5126,
            "count" : 11594,
            "type" : "VEC2"
        },
        {
            "bufferView" : 3,
            "componentType" : 5123,
            "count" : 54972,
            "type" : "SCALAR"
        }
    ],
    "bufferViews" : [
        {
            "buffer" : 0,
            "byteLength" : 139128,
            "byteOffset" : 0
        },
        {
            "buffer" : 0,
            "byteLength" : 139128,
            "byteOffset" : 139128
        },
        {
            "buffer" : 0,
            "byteLength" : 92752,
            "byteOffset" : 278256
        },
        {
            "buffer" : 0,
            "byteLength" : 109944,
            "byteOffset" : 371008
        }
    ],
    "samplers" : [
        {
            "magFilter" : 9729,
            "minFilter" : 9987
        }
    ],
    "buffers" : [
        {
            "byteLength" : 480952,
            "uri" : "Corset.bin"
        }
    ]
}
